Coordinates
version=1
nRows=20
nColumns=33
inDegrees=yes

Units are S.I. units (second, meters, Newtons, ...)
Angles are in degrees.

endheader
time	ground_thorax_rot_x	ground_thorax_rot_y	ground_thorax_rot_z	ground_thorax_tx	ground_thorax_ty	ground_thorax_tz	clav_prot_r	clav_elev_r	scapula_abduction_r	scapula_elevation_r	scapula_upward_rot_r	scapula_winging_r	shoulder_elv_r	plane_of_elev_r	axial_rot_r	elbow_flexion_r	pro_sup_r	wrist_flex_r	wrist_dev_r	clav_prot_l	clav_elev_l	scapula_abduction_l	scapula_elevation_l	scapula_upward_rot_l	scapula_winging_l	shoulder_elv_l	plane_of_elev_l	axial_rot_l	elbow_flexion_l	pro_sup_l	wrist_flex_l	wrist_dev_l	
1.4600	-5.745424	4.342607	11.902635	-0.105583	1.027832	0.004673	17.447302	-14.309253	42.258752	-14.049113	21.960186	-11.365719	0.273797	-53.358893	122.024693	-34.800996	-136.631366	3.233182	0.319619	24.205832	-9.727792	-36.340620	-6.577560	-23.790609	12.155787	58.906921	1.844449	13.951053	16.877475	22.098319	18.635512	-5.262965	
1.4700	-5.643497	4.201561	11.771702	-0.105022	1.028129	0.004728	17.377899	-14.086402	42.320853	-13.921746	22.193585	-11.502657	0.089759	-53.310413	121.892377	-34.660443	-137.066899	3.448648	0.149476	24.318011	-10.172682	-36.482141	-6.148564	-23.691923	12.139860	59.065407	2.058005	14.430626	15.871550	22.383558	17.988852	-5.138326	
1.4800	-5.544893	4.049725	11.661168	-0.104502	1.028366	0.004789	17.325600	-13.855465	42.397836	-13.781975	22.408548	-11.654983	-0.111252	-53.264276	121.761954	-34.533471	-137.565211	3.679511	-0.038871	24.424178	-10.579674	-36.616130	-5.765671	-23.622579	12.127250	59.211926	2.266519	14.888770	14.934546	22.711968	17.314074	-5.056855	
1.4900	-5.449440	3.875018	11.562588	-0.104023	1.028492	0.004857	17.289510	-13.607881	42.492745	-13.623965	22.611337	-11.829022	-0.335048	-53.227479	121.654423	-34.432797	-138.148130	3.931258	-0.250264	24.516682	-10.894560	-36.733854	-5.484783	-23.603075	12.122695	59.333011	2.483914	15.334547	14.146027	23.103190	16.584486	-5.041746	
1.5000	-5.365001	3.680701	11.483901	-0.103601	1.028523	0.004935	17.270566	-13.366988	42.589270	-13.461370	22.777354	-12.005318	-0.570965	-53.198929	121.568575	-34.370989	-138.799195	4.190247	-0.468002	24.591476	-11.123999	-36.829288	-5.294287	-23.620157	12.122652	59.432808	2.674290	15.720433	13.517862	23.518580	15.876311	-5.090771	
1.5100	-5.284921	3.473276	11.427523	-0.103239	1.028471	0.005024	17.261877	-13.136767	42.672770	-13.296497	22.901068	-12.174579	-0.821935	-53.188462	121.503917	-34.355387	-139.599595	4.468394	-0.692433	24.641958	-11.275180	-36.891156	-5.186550	-23.669847	12.119035	59.509059	2.825079	16.023954	13.057155	23.957460	15.205696	-5.224473	
1.5200	-5.208333	3.261592	11.389597	-0.102945	1.028366	0.005125	17.259421	-12.931782	42.730243	-13.139708	22.973678	-12.322367	-1.072591	-53.197354	121.454308	-34.392020	-140.515872	4.754909	-0.912284	24.668633	-11.364094	-36.919845	-5.141159	-23.737471	12.109653	59.567320	2.922479	16.232195	12.747401	24.380448	14.615867	-5.425053	
1.5300	-5.132128	3.057165	11.366821	-0.102708	1.028239	0.005235	17.255906	-12.771680	42.737013	-13.003338	22.976983	-12.426815	-1.310588	-53.230836	121.413781	-34.506507	-141.551252	5.048356	-1.118243	24.668206	-11.410702	-36.908948	-5.134155	-23.807585	12.087127	59.608152	2.949935	16.326609	12.581346	24.732534	14.157336	-5.680982	
1.5400	-5.060636	2.866059	11.350382	-0.102542	1.028114	0.005351	17.245863	-12.668264	42.684699	-12.897912	22.912222	-12.476413	-1.517731	-53.283928	121.381491	-34.698083	-142.599357	5.326627	-1.293469	24.646901	-11.425719	-36.868380	-5.150436	-23.867862	12.055464	59.640651	2.906984	16.322822	12.531785	24.961054	13.854990	-5.948314	
1.5500	-4.993659	2.698149	11.339931	-0.102432	1.028001	0.005474	17.222660	-12.628956	42.557511	-12.827849	22.771765	-12.460040	-1.710783	-53.365061	121.356340	-34.982403	-143.855653	5.629016	-1.451869	24.599640	-11.422803	-36.788020	-5.178968	-23.918943	12.004996	59.671595	2.791355	16.201696	12.590430	25.049267	13.676260	-6.262125	
1.5600	-4.934160	2.551746	11.336106	-0.102395	1.027888	0.005603	17.184114	-12.647068	42.361825	-12.790972	22.569525	-12.383157	-1.884391	-53.469840	121.344572	-35.346555	-145.177161	5.930923	-1.582684	24.535488	-11.399870	-36.682559	-5.225207	-23.969745	11.944654	59.702467	2.618309	16.004726	12.752270	24.987498	13.604725	-6.581682	
1.5700	-4.882056	2.430961	11.342739	-0.102416	1.027764	0.005740	17.128552	-12.718506	42.089530	-12.781318	22.296622	-12.245542	-2.051684	-53.598450	121.342401	-35.812553	-146.588215	6.241706	-1.685726	24.453823	-11.362150	-36.549630	-5.289791	-24.031151	11.870947	59.736128	2.390216	15.738141	13.033991	24.781879	13.619667	-6.914914	
1.5800	-4.833856	2.333675	11.359370	-0.102531	1.027620	0.005882	17.056554	-12.815176	41.766641	-12.783996	21.988292	-12.072167	-2.206109	-53.741285	121.345082	-36.333232	-147.876370	6.522712	-1.747774	24.368178	-11.312048	-36.410939	-5.373863	-24.111440	11.795819	59.774447	2.138610	15.470647	13.401486	24.483720	13.683897	-7.212606	
1.5900	-4.790457	2.272042	11.393081	-0.102705	1.027472	0.006038	16.962842	-12.950209	41.365547	-12.802283	21.615281	-11.845246	-2.377230	-53.907566	121.328579	-36.947457	-149.308920	6.822302	-1.772501	24.272019	-11.271382	-36.251823	-5.467379	-24.228119	11.703779	59.836198	1.856454	15.166193	13.865126	24.102249	13.746921	-7.536273	
1.6000	-4.742480	2.240704	11.442664	-0.102944	1.027302	0.006201	16.847901	-13.093106	40.908377	-12.817574	21.206778	-11.590498	-2.558401	-54.092604	121.292658	-37.629000	-150.664371	7.107027	-1.759673	24.172312	-11.232718	-36.084641	-5.578571	-24.385975	11.604054	59.904666	1.576595	14.905342	14.416559	23.683315	13.792092	-7.840656	
1.6100	-4.692081	2.239858	11.507481	-0.103212	1.027109	0.006375	16.714580	-13.244254	40.386326	-12.824323	20.742239	-11.306405	-2.761046	-54.291181	121.226530	-38.414199	-151.994551	7.393484	-1.718828	24.062813	-11.197944	-35.898945	-5.705558	-24.583612	11.489768	59.980496	1.290904	14.684831	15.075262	23.230009	13.825851	-8.143531	
1.6200	-4.632944	2.261555	11.580554	-0.103529	1.026888	0.006552	16.567794	-13.374370	39.835688	-12.808071	20.262629	-11.023053	-2.977102	-54.496953	121.134481	-39.245103	-153.172698	7.661214	-1.667585	23.946647	-11.158422	-35.702079	-5.850634	-24.810406	11.368153	60.049691	1.025092	14.558330	15.810395	22.809192	13.840283	-8.421207	
1.6300	-4.579318	2.305978	11.665040	-0.103862	1.026662	0.006741	16.404824	-13.511696	39.230297	-12.784369	19.736592	-10.714392	-3.225025	-54.711524	121.013149	-40.154764	-154.417755	7.944463	-1.610235	23.813402	-11.121666	-35.476085	-6.007051	-25.064373	11.226329	60.130568	0.745090	14.466908	16.640448	22.395801	13.852538	-8.720231	
1.6400	-4.538759	2.374466	11.754294	-0.104219	1.026465	0.006924	16.217948	-13.672927	38.568720	-12.772448	19.181252	-10.366444	-3.499234	-54.947669	120.868926	-41.104200	-155.748777	8.227768	-1.550912	23.665001	-11.086947	-35.224879	-6.175997	-25.347014	11.066887	60.237275	0.466640	14.428229	17.542135	22.032428	13.864485	-9.026595	
1.6500	-4.513719	2.461421	11.848720	-0.104594	1.026292	0.007105	16.011828	-13.850044	37.858084	-12.764644	18.595672	-9.988147	-3.801107	-55.197831	120.709628	-42.093544	-157.155584	8.513052	-1.496497	23.502022	-11.048469	-34.950358	-6.359805	-25.652642	10.892552	60.364111	0.184322	14.443471	18.514212	21.717005	13.877328	-9.340839	
